# xmcd
#
# Track frame offsets:
#  150
#  12265
#  28937
#  44445
#  61650
#  75915
#  86625
#  97642
#  113612
#  125185
#  137080
#  148502
#  160642
#  173675
#  184915
#  195177
#  205622
#  219805
#  236767
#  255865
#  273762
#  286210
#
# Disc length: 4023 seconds
#
# Revision: 2
# Processed by: cddbd v1.5.1PL2 Copyright (c) Steve Scherf et al.
# Submitted via: Collectorz.com_Music_Collector 6.11
#
DISCID=150fb516
DTITLE=Various Artist - The Bluesville Years Vol.2 - The Feelin' Down On The South Side
DYEAR=1995
DGENRE=Blues
TTITLE0=Otis Spann - Come On
TTITLE1=Otis Spann - The Blues Never Die
TTITLE2=James Cotton - Feelin' Good
TTITLE3=James Cotton - One More Mile To Go
TTITLE4=Billy Boy Arnold - Two Drinks Of Wine
TTITLE5=Billy Boy Arnold - School Time
TTITLE6=Billy Boy Arnold - I Love You Only
TTITLE7=Homesick James - Johnny Mae
TTITLE8=Homesick James - Gotta Move
TTITLE9=Elmore James - Dust My Broom
TTITLE10=James Cotton - Straighten Up, Baby
TTITLE11=Otis Spann - Must Have Been The Devil
TTITLE12=Otis Spann - I Got A Feeling
TTITLE13=Billy Boy Arnold - Dawson - Oh Baby
TTITLE14=Parker - Davis - I'll Forget About You
TTITLE15=Jimmy Reed - Goin' By The River
TTITLE16=Williamson - Homesick's Blues
TTITLE17=Williamson - Goin' Down Swingin'
TTITLE18=Williamson - Homesick's Shuffle
TTITLE19=Otis Spann - After Awhile
TTITLE20=Billy Boy Arnold - Billy Boy's Blues
TTITLE21=Homesick James - The Cloud Is Crying
EXTD=
EXTT0=
EXTT1=
EXTT2=
EXTT3=
EXTT4=
EXTT5=
EXTT6=
EXTT7=
EXTT8=
EXTT9=
EXTT10=
EXTT11=
EXTT12=
EXTT13=
EXTT14=
EXTT15=
EXTT16=
EXTT17=
EXTT18=
EXTT19=
EXTT20=
EXTT21=
PLAYORDER=
